<svg xmlns="http://www.w3.org/2000/svg" width="30.6" height="30.63" viewBox="0 0 30.6 30.63">
  <defs>
    <style>
      .cls-1 {
        fill: #1564a4;
        fill-rule: evenodd;
      }
    </style>
  </defs>
  <path id="blue-plus.svg" class="cls-1" d="M2261.57,5945.32a15.305,15.305,0,1,0,15.3,15.3A15.3,15.3,0,0,0,2261.57,5945.32Zm0,2.05a13.26,13.26,0,1,0,13.26,13.25A13.256,13.256,0,0,0,2261.57,5947.37Zm6.08,12.26H2255.5a1,1,0,1,0,0,1.99h12.15A1,1,0,1,0,2267.65,5959.63Zm-6.08-6.14a1.022,1.022,0,0,0-.99,1.06v12.15a1,1,0,1,0,1.99,0v-12.15A1.03,1.03,0,0,0,2261.57,5953.49Z" transform="translate(-2246.28 -5945.31)"/>
</svg>
