<svg xmlns="http://www.w3.org/2000/svg" viewBox="0 0 54.33 57.75"><defs><style>.cls-1{fill:#fff;}</style></defs><title>Google-44</title><g id="Layer_2" data-name="Layer 2"><g id="Layer_1-2" data-name="Layer 1"><path class="cls-1" d="M27.16,57.75,0,46V0H54.33V46ZM.64,45.59,27.16,57.06,53.69,45.59V.64H.64Z"/><path class="cls-1" d="M27.16,53.54l-23-10V4.24H50.2V43.51ZM5.4,42.68l21.76,9.47,21.76-9.47V5.52H5.4Z"/><path class="cls-1" d="M15.21,16.2h0a2.39,2.39,0,0,1,2.44-2.41,2.56,2.56,0,0,1,1.83.64l-.65.78a1.71,1.71,0,0,0-1.22-.47,1.4,1.4,0,0,0-1.34,1.45h0a1.39,1.39,0,0,0,1.41,1.48,1.63,1.63,0,0,0,1-.28v-.67h-1v-.88h2v2a3,3,0,0,1-2,.74A2.33,2.33,0,0,1,15.21,16.2Z"/><path class="cls-1" d="M20.35,16.76h0a1.87,1.87,0,0,1,1.94-1.86,1.85,1.85,0,0,1,1.92,1.84h0a1.93,1.93,0,0,1-3.86,0Zm2.86,0h0a1,1,0,0,0-.94-1,.91.91,0,0,0-.92,1h0a1,1,0,0,0,.94,1A.91.91,0,0,0,23.21,16.76Z"/><path class="cls-1" d="M24.76,16.76h0a1.87,1.87,0,0,1,1.94-1.86,1.85,1.85,0,0,1,1.92,1.84h0a1.93,1.93,0,0,1-3.86,0Zm2.86,0h0a1,1,0,0,0-.94-1,.91.91,0,0,0-.92,1h0a1,1,0,0,0,.94,1A.91.91,0,0,0,27.62,16.76Z"/><path class="cls-1" d="M29.37,19.22l.35-.76a2.33,2.33,0,0,0,1.2.33c.69,0,1-.33,1-1v-.17a1.4,1.4,0,0,1-1.16.58,1.57,1.57,0,0,1-1.58-1.66h0a1.57,1.57,0,0,1,1.58-1.66,1.45,1.45,0,0,1,1.15.53V15h1v2.76a1.91,1.91,0,0,1-.45,1.4,2.09,2.09,0,0,1-1.54.48A3.39,3.39,0,0,1,29.37,19.22Zm2.57-2.66h0a.87.87,0,0,0-1.74,0h0a.82.82,0,0,0,.87.83A.82.82,0,0,0,31.94,16.56Z"/><path class="cls-1" d="M33.89,13.66h1v4.86h-1Z"/><path class="cls-1" d="M35.68,16.76h0a1.78,1.78,0,0,1,1.76-1.86,1.74,1.74,0,0,1,1.74,1.94c0,.08,0,.17,0,.27H36.68a.83.83,0,0,0,.87.7,1.17,1.17,0,0,0,.87-.37l.58.51a1.88,1.88,0,0,1-3.32-1.18Zm2.51-.3a.76.76,0,0,0-.75-.76.79.79,0,0,0-.77.76Z"/><path class="cls-1" d="M15.68,22.41h2.13a1.86,1.86,0,0,1,1.36.47,1.46,1.46,0,0,1,.4,1.06h0a1.45,1.45,0,0,1-1,1.44l1.14,1.66h-1.2l-1-1.49H16.7v1.49h-1Zm2.06,2.26c.5,0,.79-.27.79-.66h0c0-.44-.31-.67-.8-.67h-1v1.34Z"/><path class="cls-1" d="M20.17,26h0c0-.78.59-1.14,1.44-1.14a2.54,2.54,0,0,1,.87.15V25c0-.42-.26-.65-.76-.65a2.61,2.61,0,0,0-1,.19l-.25-.77a3.13,3.13,0,0,1,1.38-.29,1.65,1.65,0,0,1,1.2.4A1.56,1.56,0,0,1,23.45,25v2.07h-1v-.39a1.37,1.37,0,0,1-1.08.45A1.1,1.1,0,0,1,20.17,26Zm2.32-.23v-.18a1.56,1.56,0,0,0-.65-.13c-.43,0-.7.17-.7.49h0c0,.27.23.43.55.43S22.49,26.18,22.49,25.81Z"/><path class="cls-1" d="M24.46,26.06V24.37H24V23.5h.43v-.91h1v.91h.84v.86h-.84v1.52c0,.23.1.35.33.35a1,1,0,0,0,.5-.13v.81a1.49,1.49,0,0,1-.8.21C24.88,27.13,24.46,26.88,24.46,26.06Z"/><path class="cls-1" d="M27.07,22.21h1.06v.9H27.07Zm0,1.29h1v3.57h-1Z"/><path class="cls-1" d="M29.06,23.5h1V24a1.26,1.26,0,0,1,1-.57,1.17,1.17,0,0,1,1.21,1.32v2.31h-1v-2c0-.48-.23-.72-.61-.72s-.63.25-.63.72v2h-1Z"/><path class="cls-1" d="M33.23,27.77l.35-.76a2.32,2.32,0,0,0,1.2.33c.69,0,1-.33,1-1V26.2a1.4,1.4,0,0,1-1.16.58A1.57,1.57,0,0,1,33,25.11h0a1.57,1.57,0,0,1,1.58-1.66,1.45,1.45,0,0,1,1.15.53V23.5h1v2.76a1.91,1.91,0,0,1-.45,1.4,2.09,2.09,0,0,1-1.54.48A3.39,3.39,0,0,1,33.23,27.77Zm2.57-2.66h0a.87.87,0,0,0-1.74,0h0a.82.82,0,0,0,.87.83A.82.82,0,0,0,35.79,25.11Z"/><path class="cls-1" d="M37.69,23.5h1.08v1.06H37.69Zm0,2.5h1.08v1.06H37.69Z"/><path class="cls-1" d="M22.17,38.27H18.59l-.33-1.44,3.82-4.55h2.05v4.46h.94v1.53h-.94v1.43h-2Zm0-1.52V34.63l-1.77,2.13Z"/><path class="cls-1" d="M25.84,37.65h2.07v2.05H25.84Z"/><path class="cls-1" d="M31.82,38.27H28.24l-.33-1.44,3.82-4.55h2.05v4.46h.94v1.53h-.94v1.43h-2Zm0-1.52V34.63l-1.77,2.13Z"/></g></g></svg>