<svg xmlns="http://www.w3.org/2000/svg" viewBox="0 0 39.67 42.17"><defs><style>.cls-1{fill:#fff;}</style></defs><title>Google Rating</title><g id="Layer_2" data-name="Layer 2"><g id="Layer_1-2" data-name="Layer 1"><path class="cls-1" d="M19.84,42.17,0,33.6V0H39.67V33.6Zm-19.2-9,19.2,8.3L39,33.18V.64H.64Z"/><path class="cls-1" d="M19.84,39.21,2.91,31.84V3H36.76V31.84ZM4.19,31l15.65,6.81L35.48,31V4.27H4.19Z"/><path class="cls-1" d="M11.14,11.87h0a1.74,1.74,0,0,1,1.78-1.75,1.86,1.86,0,0,1,1.33.46l-.47.57a1.25,1.25,0,0,0-.89-.34,1,1,0,0,0-1,1.05h0a1,1,0,0,0,1,1.07,1.19,1.19,0,0,0,.7-.2v-.48H12.9V11.6h1.47v1.47a2.2,2.2,0,0,1-1.45.54A1.69,1.69,0,0,1,11.14,11.87Z"/><path class="cls-1" d="M14.88,12.27h0a1.4,1.4,0,0,1,2.81,0h0a1.4,1.4,0,0,1-2.81,0Zm2.08,0h0a.69.69,0,0,0-.68-.72.66.66,0,0,0-.67.71h0a.69.69,0,0,0,.68.72A.66.66,0,0,0,17,12.27Z"/><path class="cls-1" d="M18.09,12.27h0a1.4,1.4,0,0,1,2.81,0h0a1.4,1.4,0,0,1-2.81,0Zm2.08,0h0a.69.69,0,0,0-.68-.72.66.66,0,0,0-.67.71h0a.69.69,0,0,0,.68.72A.66.66,0,0,0,20.17,12.27Z"/><path class="cls-1" d="M21.44,14.06l.25-.55a1.69,1.69,0,0,0,.88.24c.5,0,.74-.24.74-.71v-.13a1,1,0,0,1-.85.42,1.14,1.14,0,0,1-1.15-1.21h0a1.14,1.14,0,0,1,1.15-1.21,1,1,0,0,1,.84.39V11H24v2a1.39,1.39,0,0,1-.33,1,1.52,1.52,0,0,1-1.12.35A2.46,2.46,0,0,1,21.44,14.06Zm1.87-1.93h0a.63.63,0,0,0-1.26,0h0a.59.59,0,0,0,.63.6A.6.6,0,0,0,23.31,12.13Z"/><path class="cls-1" d="M24.73,10h.74v3.53h-.74Z"/><path class="cls-1" d="M26,12.27h0a1.29,1.29,0,0,1,1.28-1.35,1.26,1.26,0,0,1,1.26,1.41c0,.06,0,.13,0,.19h-1.8a.6.6,0,0,0,.63.51.85.85,0,0,0,.63-.27l.42.37A1.37,1.37,0,0,1,26,12.27Zm1.83-.22a.56.56,0,0,0-.55-.55.58.58,0,0,0-.56.55Z"/><path class="cls-1" d="M11.49,16.38H13a1.35,1.35,0,0,1,1,.34,1.07,1.07,0,0,1,.29.77h0a1.05,1.05,0,0,1-.73,1l.83,1.21h-.87l-.73-1.08h-.58v1.08h-.75ZM13,18c.36,0,.57-.19.57-.48h0c0-.32-.22-.48-.59-.48h-.74v1Z"/><path class="cls-1" d="M14.75,19h0c0-.57.43-.83,1-.83a1.85,1.85,0,0,1,.63.11v0c0-.3-.19-.47-.56-.47a1.91,1.91,0,0,0-.72.14L15,17.35a2.3,2.3,0,0,1,1-.21,1.19,1.19,0,0,1,.88.29,1.13,1.13,0,0,1,.28.83v1.5h-.71v-.28a1,1,0,0,1-.78.33A.8.8,0,0,1,14.75,19Zm1.69-.17v-.13a1.15,1.15,0,0,0-.47-.1c-.31,0-.51.13-.51.36h0c0,.2.16.31.4.31S16.44,19.12,16.44,18.85Z"/><path class="cls-1" d="M17.87,19V17.8h-.31v-.63h.31v-.66h.74v.66h.61v.63h-.61v1.11c0,.17.07.25.24.25a.75.75,0,0,0,.36-.09v.59a1.08,1.08,0,0,1-.58.15C18.18,19.81,17.87,19.63,17.87,19Z"/><path class="cls-1" d="M19.77,16.24h.77v.65h-.77Zm0,.94h.74v2.59h-.74Z"/><path class="cls-1" d="M21.22,17.18H22v.37a.92.92,0,0,1,.76-.42.85.85,0,0,1,.88,1v1.68h-.74V18.32c0-.35-.16-.53-.45-.53S22,18,22,18.32v1.45h-.73Z"/><path class="cls-1" d="M24.24,20.28l.25-.55a1.69,1.69,0,0,0,.88.24c.5,0,.74-.24.74-.71v-.13a1,1,0,0,1-.85.42,1.14,1.14,0,0,1-1.15-1.21h0a1.14,1.14,0,0,1,1.15-1.21,1,1,0,0,1,.84.39v-.34h.74v2a1.39,1.39,0,0,1-.33,1,1.52,1.52,0,0,1-1.12.35A2.46,2.46,0,0,1,24.24,20.28Zm1.87-1.93h0a.63.63,0,0,0-1.26,0h0a.59.59,0,0,0,.63.6A.6.6,0,0,0,26.11,18.35Z"/><path class="cls-1" d="M27.49,17.18h.78V18h-.78Zm0,1.82h.78v.77h-.78Z"/><path class="cls-1" d="M17.67,27.92h-2.6l-.24-1,2.78-3.31H19.1v3.25h.68v1.11H19.1v1H17.67Zm0-1.1V25.27l-1.29,1.55Z"/><path class="cls-1" d="M20.33,27.46h1.51V29H20.33Z"/><path class="cls-1" d="M23,24.94l-.9.21L21.79,24l1.57-.44h1.08V29H23Z"/></g></g></svg>