<?xml version="1.0" encoding="utf-8"?>
<!-- Generator: Adobe Illustrator 17.1.0, SVG Export Plug-In . SVG Version: 6.00 Build 0)  -->
<!DOCTYPE svg PUBLIC "-//W3C//DTD SVG 1.1//EN" "http://www.w3.org/Graphics/SVG/1.1/DTD/svg11.dtd">
<svg version="1.1" id="Layer_1" xmlns="http://www.w3.org/2000/svg" xmlns:xlink="http://www.w3.org/1999/xlink" x="0px" y="0px"
	 viewBox="0 0 181.5 173.4" enable-background="new 0 0 181.5 173.4" xml:space="preserve">
<polygon fill-rule="evenodd" clip-rule="evenodd" fill="#FFFFFF" points="20.8,141.7 13.7,141.7 13.7,144.5 20.2,144.5 20.2,146.9 
	13.7,146.9 13.7,150.3 21.1,150.3 21.1,152.7 11,152.7 11,139.3 20.8,139.3 "/>
<g>
	<defs>
		<rect id="SVGID_1_" width="181.5" height="173.4"/>
	</defs>
	<clipPath id="SVGID_2_">
		<use xlink:href="#SVGID_1_"  overflow="visible"/>
	</clipPath>
	<path clip-path="url(#SVGID_2_)" fill-rule="evenodd" clip-rule="evenodd" fill="#FFFFFF" d="M29.8,149.1l1.3,1.3
		c-0.5,0.3-1,0.4-1.5,0.4c-1.5,0-3.6-0.9-3.6-4.7c0-3.7,2.1-4.7,3.6-4.7c1.5,0,3.6,0.9,3.6,4.7c0,1.3-0.2,2.2-0.6,2.9l-1.4-1.3
		L29.8,149.1z M36.1,152.2l-1.5-1.4c0.8-1,1.4-2.6,1.4-4.8c0-6.3-4.7-7-6.4-7c-1.8,0-6.4,0.8-6.4,7c0,6.3,4.7,7,6.4,7
		c0.8,0,2.2-0.1,3.4-0.9l1.6,1.5L36.1,152.2z"/>
	<path clip-path="url(#SVGID_2_)" fill-rule="evenodd" clip-rule="evenodd" fill="#FFFFFF" d="M49.2,148c0,3.5-2.1,5-5.5,5
		c-1.2,0-3.1-0.3-4.2-1.6c-0.7-0.8-1-1.9-1-3.2v-8.9h2.8v8.7c0,1.9,1.1,2.7,2.4,2.7c1.9,0,2.7-0.9,2.7-2.6v-8.8h2.9V148z"/>
	<path clip-path="url(#SVGID_2_)" fill-rule="evenodd" clip-rule="evenodd" fill="#FFFFFF" d="M56.7,142.4L56.7,142.4l1.7,5.3H55
		L56.7,142.4z M54.2,150h4.9l0.9,2.8h3l-4.7-13.4h-3.2l-4.8,13.4h2.9L54.2,150z"/>
	<polygon clip-path="url(#SVGID_2_)" fill-rule="evenodd" clip-rule="evenodd" fill="#FFFFFF" points="68,150.3 74.7,150.3 
		74.7,152.7 65.2,152.7 65.2,139.3 68,139.3 	"/>
	<polygon clip-path="url(#SVGID_2_)" fill-rule="evenodd" clip-rule="evenodd" fill="#FFFFFF" points="85.3,146.7 85.3,152.7 
		82.5,152.7 82.5,139.3 85.3,139.3 85.3,144.4 90.5,144.4 90.5,139.3 93.3,139.3 93.3,152.7 90.5,152.7 90.5,146.7 	"/>
	<path clip-path="url(#SVGID_2_)" fill-rule="evenodd" clip-rule="evenodd" fill="#FFFFFF" d="M98.6,146c0-3.7,2.1-4.7,3.6-4.7
		c1.5,0,3.6,0.9,3.6,4.7c0,3.7-2.1,4.7-3.6,4.7C100.8,150.7,98.6,149.8,98.6,146 M95.8,146c0,6.3,4.7,7,6.4,7c1.8,0,6.4-0.8,6.4-7
		c0-6.3-4.7-7-6.4-7C100.5,139,95.8,139.8,95.8,146"/>
	<path clip-path="url(#SVGID_2_)" fill-rule="evenodd" clip-rule="evenodd" fill="#FFFFFF" d="M122,148c0,3.5-2.1,5-5.5,5
		c-1.2,0-3.1-0.3-4.2-1.6c-0.7-0.8-1-1.9-1-3.2v-8.9h2.8v8.7c0,1.9,1.1,2.7,2.4,2.7c1.9,0,2.7-0.9,2.7-2.6v-8.8h2.9V148z"/>
	<path clip-path="url(#SVGID_2_)" fill-rule="evenodd" clip-rule="evenodd" fill="#FFFFFF" d="M127.1,148.6c0,0.7,0.4,2.2,2.8,2.2
		c1.3,0,2.8-0.3,2.8-1.7c0-1-1-1.3-2.4-1.7l-1.4-0.3c-2.2-0.5-4.3-1-4.3-3.9c0-1.5,0.8-4.1,5.1-4.1c4.1,0,5.2,2.7,5.2,4.3h-2.7
		c-0.1-0.6-0.3-2-2.7-2c-1.1,0-2.3,0.4-2.3,1.6c0,1,0.9,1.3,1.4,1.4l3.3,0.8c1.8,0.4,3.5,1.2,3.5,3.6c0,4-4.1,4.4-5.3,4.4
		c-4.9,0-5.7-2.8-5.7-4.5H127.1z"/>
	
		<rect x="137.8" y="139.3" clip-path="url(#SVGID_2_)" fill-rule="evenodd" clip-rule="evenodd" fill="#FFFFFF" width="2.8" height="13.4"/>
	<polygon clip-path="url(#SVGID_2_)" fill-rule="evenodd" clip-rule="evenodd" fill="#FFFFFF" points="151.7,139.3 154.3,139.3 
		154.3,152.7 151.5,152.7 146.1,143.2 146,143.2 146,152.7 143.4,152.7 143.4,139.3 146.4,139.3 151.7,148.7 151.7,148.7 	"/>
	<path clip-path="url(#SVGID_2_)" fill-rule="evenodd" clip-rule="evenodd" fill="#FFFFFF" d="M163.7,145.5h5.6v7.2h-1.9l-0.3-1.7
		c-0.7,0.8-1.7,2-4.2,2c-3.2,0-6.1-2.3-6.1-7c0-3.6,2-7.1,6.5-7.1c4.1,0,5.7,2.7,5.9,4.5h-2.8c0-0.5-1-2.2-2.9-2.2
		c-2,0-3.8,1.4-3.8,4.8c0,3.7,2,4.6,3.9,4.6c0.6,0,2.7-0.2,3.2-2.9h-3.1V145.5z"/>
	<path clip-path="url(#SVGID_2_)" fill-rule="evenodd" clip-rule="evenodd" fill="#FFFFFF" d="M13.2,166.4c0-3.7,2.1-4.7,3.6-4.7
		c1.5,0,3.6,0.9,3.6,4.7c0,3.7-2.1,4.7-3.6,4.7C15.3,171,13.2,170.1,13.2,166.4 M10.4,166.4c0,6.3,4.7,7,6.4,7c1.8,0,6.4-0.8,6.4-7
		s-4.7-7-6.4-7C15.1,159.3,10.4,160.1,10.4,166.4"/>
	<path clip-path="url(#SVGID_2_)" fill-rule="evenodd" clip-rule="evenodd" fill="#FFFFFF" d="M30.9,165.9V162h2.2
		c1.7,0,2.5,0.5,2.5,1.8c0,0.6,0,2.1-2.1,2.1H30.9z M30.9,168.2h3.2c3.6,0,4.3-3.1,4.3-4.3c0-2.6-1.6-4.3-4.2-4.3h-6.1V173h2.8
		V168.2z"/>
	<path clip-path="url(#SVGID_2_)" fill-rule="evenodd" clip-rule="evenodd" fill="#FFFFFF" d="M46,165.9V162h2.2
		c1.7,0,2.5,0.5,2.5,1.8c0,0.6,0,2.1-2.1,2.1H46z M46,168.2h3.2c3.6,0,4.3-3.1,4.3-4.3c0-2.6-1.6-4.3-4.2-4.3h-6.1V173H46V168.2z"/>
	<path clip-path="url(#SVGID_2_)" fill-rule="evenodd" clip-rule="evenodd" fill="#FFFFFF" d="M60.4,166.4c0-3.7,2.1-4.7,3.6-4.7
		c1.5,0,3.6,0.9,3.6,4.7c0,3.7-2.1,4.7-3.6,4.7C62.5,171,60.4,170.1,60.4,166.4 M57.6,166.4c0,6.3,4.7,7,6.4,7c1.8,0,6.4-0.8,6.4-7
		s-4.7-7-6.4-7C62.3,159.3,57.6,160.1,57.6,166.4"/>
	<path clip-path="url(#SVGID_2_)" fill-rule="evenodd" clip-rule="evenodd" fill="#FFFFFF" d="M78.1,165.6V162h3.5
		c1.6,0,2,1.1,2,1.8c0,1.3-0.7,1.8-2.2,1.8H78.1z M75.3,173h2.7v-5.2H81c2.1,0,2.2,0.7,2.2,2.5c0,1.4,0.1,2.1,0.3,2.7h3.1v-0.4
		c-0.6-0.2-0.6-0.7-0.6-2.7c0-2.5-0.6-2.9-1.7-3.4c1.3-0.4,2.1-1.7,2.1-3.2c0-1.2-0.6-3.8-4.2-3.8h-6.8V173z"/>
	<polygon clip-path="url(#SVGID_2_)" fill-rule="evenodd" clip-rule="evenodd" fill="#FFFFFF" points="96.7,173 93.9,173 93.9,162 
		89.9,162 89.9,159.7 100.8,159.7 100.8,162 96.7,162 	"/>
	<path clip-path="url(#SVGID_2_)" fill-rule="evenodd" clip-rule="evenodd" fill="#FFFFFF" d="M115.7,168.4c0,3.5-2.1,5-5.5,5
		c-1.2,0-3.1-0.3-4.2-1.6c-0.7-0.8-1-1.9-1-3.2v-8.9h2.8v8.7c0,1.9,1.1,2.7,2.4,2.7c1.9,0,2.7-0.9,2.7-2.6v-8.8h2.9V168.4z"/>
	<polygon clip-path="url(#SVGID_2_)" fill-rule="evenodd" clip-rule="evenodd" fill="#FFFFFF" points="129.3,159.7 131.9,159.7 
		131.9,173 129.1,173 123.6,163.5 123.6,163.5 123.6,173 121,173 121,159.7 123.9,159.7 129.2,169 129.3,169 	"/>
	
		<rect x="137" y="159.7" clip-path="url(#SVGID_2_)" fill-rule="evenodd" clip-rule="evenodd" fill="#FFFFFF" width="2.8" height="13.4"/>
	<polygon clip-path="url(#SVGID_2_)" fill-rule="evenodd" clip-rule="evenodd" fill="#FFFFFF" points="150.7,173 147.9,173 
		147.9,162 143.8,162 143.8,159.7 154.7,159.7 154.7,162 150.7,162 	"/>
	<polygon clip-path="url(#SVGID_2_)" fill-rule="evenodd" clip-rule="evenodd" fill="#FFFFFF" points="165.3,173 162.5,173 
		162.5,168 157.9,159.7 161.2,159.7 163.9,165.5 166.6,159.7 169.8,159.7 165.3,168 	"/>
	<path clip-path="url(#SVGID_2_)" fill-rule="evenodd" clip-rule="evenodd" fill="#FFFFFF" d="M90.1,0L0,44.4v20.8h10.1v62.5h159.3
		V65.2h12.1V44.4L90.1,0z M149.9,108.9H29.6V51.7l60.5-30.9l59.8,30.9V108.9z"/>
	
		<rect x="61.8" y="51.8" clip-path="url(#SVGID_2_)" fill-rule="evenodd" clip-rule="evenodd" fill="#FFFFFF" width="55.8" height="20.2"/>
	
		<rect x="61.8" y="80.6" clip-path="url(#SVGID_2_)" fill-rule="evenodd" clip-rule="evenodd" fill="#FFFFFF" width="55.8" height="20.2"/>
</g>
</svg>
