<svg xmlns="http://www.w3.org/2000/svg" viewBox="0 0 36.92 43.67"><defs><style>.cls-1{fill:#fff;}</style></defs><title>Mortgage Lender</title><g id="Layer_2" data-name="Layer 2"><g id="Layer_1-2" data-name="Layer 1"><path class="cls-1" d="M7.11,11.93H5.51v-1.3h4.7v1.3H8.6V16H7.11Z"/><path class="cls-1" d="M9.91,13.94v0a2.2,2.2,0,0,1,2.29-2.17,2.19,2.19,0,0,1,2.28,2.15v0a2.21,2.21,0,0,1-2.3,2.17A2.18,2.18,0,0,1,9.91,13.94Zm3.16,0v0a.91.91,0,0,0-.89-.94.87.87,0,0,0-.87.93v0a.9.9,0,0,0,.88.93A.87.87,0,0,0,13.07,13.94Z"/><path class="cls-1" d="M15.09,11.85h1.46v.55a1.52,1.52,0,0,1,1.26-.64,1.94,1.94,0,0,1,1.84,2.15h0a2,2,0,0,1-1.83,2.17,1.55,1.55,0,0,1-1.26-.6v1.73H15.09Zm3.13,2.08v0a.85.85,0,1,0-1.7,0v0a.85.85,0,1,0,1.7,0Z"/><path class="cls-1" d="M22.25,14.87l2-1.53c.5-.39.7-.64.7-1a.54.54,0,0,0-.6-.55c-.36,0-.64.21-1.06.7l-1-.83a2.49,2.49,0,0,1,2.18-1.15,1.77,1.77,0,0,1,2,1.71v0c0,.86-.44,1.3-1.24,1.88l-.92.64h2.21V16H22.25Z"/><path class="cls-1" d="M26.93,15.25l.85-1a2,2,0,0,0,1.3.58c.49,0,.78-.25.78-.63h0c0-.39-.32-.62-.79-.62a1.62,1.62,0,0,0-.86.27l-.88-.5.15-2.71h3.58v1.23H28.66l0,.81a1.89,1.89,0,0,1,.86-.19,1.67,1.67,0,0,1,1.84,1.7v0A2,2,0,0,1,29.1,16.1,3,3,0,0,1,26.93,15.25Z"/><path class="cls-1" d="M7.34,20.07h.8L9,21.5l.89-1.43h.8v3.39H10V21.24L9,22.69H9l-.94-1.43v2.2H7.34Z"/><path class="cls-1" d="M11.24,22.17h0a1.4,1.4,0,0,1,2.81,0h0a1.4,1.4,0,0,1-2.81,0Zm2.08,0h0a.69.69,0,0,0-.68-.72.66.66,0,0,0-.67.71h0a.69.69,0,0,0,.68.72A.66.66,0,0,0,13.32,22.17Z"/><path class="cls-1" d="M14.48,20.86h.73v.52a.8.8,0,0,1,.83-.57v.77h0c-.49,0-.79.29-.79.91v1h-.73Z"/><path class="cls-1" d="M16.53,22.72V21.49h-.31v-.63h.31V20.2h.74v.66h.61v.63h-.61V22.6c0,.17.07.25.24.25a.75.75,0,0,0,.36-.09v.59a1.08,1.08,0,0,1-.58.15C16.83,23.5,16.53,23.32,16.53,22.72Z"/><path class="cls-1" d="M18.26,24l.25-.55a1.69,1.69,0,0,0,.88.24c.5,0,.74-.24.74-.71v-.13a1,1,0,0,1-.85.42A1.14,1.14,0,0,1,18.13,22h0a1.14,1.14,0,0,1,1.15-1.21,1,1,0,0,1,.84.39v-.34h.74v2a1.39,1.39,0,0,1-.33,1,1.52,1.52,0,0,1-1.12.35A2.46,2.46,0,0,1,18.26,24ZM20.13,22h0a.63.63,0,0,0-1.26,0h0a.59.59,0,0,0,.63.6A.6.6,0,0,0,20.13,22Z"/><path class="cls-1" d="M21.26,22.71h0c0-.57.43-.83,1-.83a1.85,1.85,0,0,1,.63.11v0c0-.3-.19-.47-.56-.47a1.91,1.91,0,0,0-.72.14L21.48,21a2.3,2.3,0,0,1,1-.21,1.19,1.19,0,0,1,.88.29,1.13,1.13,0,0,1,.28.83v1.5h-.71v-.28a1,1,0,0,1-.78.33A.8.8,0,0,1,21.26,22.71Zm1.69-.17v-.13a1.15,1.15,0,0,0-.47-.1c-.31,0-.51.13-.51.36h0c0,.2.16.31.4.31S22.95,22.8,22.95,22.54Z"/><path class="cls-1" d="M24.19,24l.25-.55a1.69,1.69,0,0,0,.88.24c.5,0,.74-.24.74-.71v-.13a1,1,0,0,1-.85.42A1.14,1.14,0,0,1,24.06,22h0a1.14,1.14,0,0,1,1.15-1.21,1,1,0,0,1,.84.39v-.34h.74v2a1.39,1.39,0,0,1-.33,1,1.52,1.52,0,0,1-1.12.35A2.46,2.46,0,0,1,24.19,24ZM26.06,22h0a.63.63,0,0,0-1.26,0h0a.59.59,0,0,0,.63.6A.6.6,0,0,0,26.06,22Z"/><path class="cls-1" d="M27.22,22.17h0a1.29,1.29,0,0,1,1.28-1.35,1.26,1.26,0,0,1,1.26,1.41c0,.06,0,.13,0,.19H28a.6.6,0,0,0,.63.51.85.85,0,0,0,.63-.27l.42.37a1.37,1.37,0,0,1-2.41-.86ZM29,22a.56.56,0,0,0-.55-.55.58.58,0,0,0-.56.55Z"/><path class="cls-1" d="M10.52,25h.75v2.71H13v.68H10.52Z"/><path class="cls-1" d="M13.17,27.14h0a1.29,1.29,0,0,1,1.28-1.35,1.26,1.26,0,0,1,1.26,1.41c0,.06,0,.13,0,.19H13.9a.6.6,0,0,0,.63.51.85.85,0,0,0,.63-.27l.42.37a1.37,1.37,0,0,1-2.41-.86ZM15,26.93a.56.56,0,0,0-.55-.55.58.58,0,0,0-.56.55Z"/><path class="cls-1" d="M16.17,25.83h.73v.37a.92.92,0,0,1,.76-.42.85.85,0,0,1,.88,1v1.68h-.74V27c0-.35-.16-.53-.45-.53s-.46.18-.46.53v1.45h-.73Z"/><path class="cls-1" d="M19,27.13h0a1.21,1.21,0,0,1,1.18-1.34,1,1,0,0,1,.81.39V24.89h.74v3.53H21v-.37a1,1,0,0,1-.81.42A1.22,1.22,0,0,1,19,27.13Zm2,0h0a.64.64,0,1,0-1.26,0h0a.64.64,0,1,0,1.26,0Z"/><path class="cls-1" d="M22.14,27.14h0a1.29,1.29,0,0,1,1.28-1.35,1.26,1.26,0,0,1,1.26,1.41c0,.06,0,.13,0,.19h-1.8a.6.6,0,0,0,.63.51.85.85,0,0,0,.63-.27l.42.37a1.37,1.37,0,0,1-2.41-.86ZM24,26.93a.56.56,0,0,0-.55-.55.58.58,0,0,0-.56.55Z"/><path class="cls-1" d="M25.14,25.83h.73v.52a.8.8,0,0,1,.83-.57v.77h0c-.49,0-.79.29-.79.91v1h-.73Z"/><path class="cls-1" d="M7.16,33.06v.34H6.43V29.87h.73v1.31A1,1,0,0,1,8,30.76,1.22,1.22,0,0,1,9.15,32.1h0A1.22,1.22,0,0,1,8,33.45,1,1,0,0,1,7.16,33.06Zm1.25-1h0a.64.64,0,1,0-1.26,0h0a.64.64,0,1,0,1.26,0Z"/><path class="cls-1" d="M11.18,30.8h.76l-1,2.66c-.2.53-.41.73-.85.73A1.22,1.22,0,0,1,9.45,34l.25-.53a.66.66,0,0,0,.31.1.24.24,0,0,0,.26-.17l-1-2.6H10l.59,1.77Z"/><path class="cls-1" d="M13.42,30.8h.78l.58,1.74.58-1.74h.76l-1,2.61h-.67Z"/><path class="cls-1" d="M16.19,32.11h0a1.4,1.4,0,0,1,2.81,0h0a1.4,1.4,0,0,1-2.81,0Zm2.08,0h0a.69.69,0,0,0-.68-.72.66.66,0,0,0-.67.71h0a.69.69,0,0,0,.68.72A.66.66,0,0,0,18.27,32.11Z"/><path class="cls-1" d="M19.47,29.87h.74V33.4h-.74Z"/><path class="cls-1" d="M20.78,32.48V30.8h.74v1.45c0,.35.16.53.44.53s.46-.18.46-.53V30.8h.74V33.4h-.74V33a.92.92,0,0,1-.76.42A.85.85,0,0,1,20.78,32.48Z"/><path class="cls-1" d="M23.72,30.8h.73v.37a.93.93,0,0,1,.76-.42.77.77,0,0,1,.73.41,1.07,1.07,0,0,1,.85-.41c.55,0,.88.33.88,1V33.4h-.74V32c0-.35-.15-.53-.43-.53s-.45.18-.45.53V33.4h-.74V32c0-.35-.15-.53-.43-.53s-.45.18-.45.53V33.4h-.73Z"/><path class="cls-1" d="M28.1,32.11h0a1.29,1.29,0,0,1,1.28-1.35,1.26,1.26,0,0,1,1.26,1.41c0,.06,0,.13,0,.19h-1.8a.6.6,0,0,0,.63.51.85.85,0,0,0,.63-.27l.42.37a1.37,1.37,0,0,1-2.41-.86Zm1.83-.22a.56.56,0,0,0-.55-.55.58.58,0,0,0-.56.55Z"/><path class="cls-1" d="M18.59,43.67h-.26a19.83,19.83,0,0,1-8.41-2.12,25.54,25.54,0,0,0-7.35-2l-.27,0V36.92H0V6.76H2.29V4.21l.27,0a25.54,25.54,0,0,0,7.35-2A19.69,19.69,0,0,1,18.46,0h.13A19.84,19.84,0,0,1,27,2.12a25.57,25.57,0,0,0,7.35,2l.27,0V6.76h2.29V36.92H34.63v2.55l-.27,0a25.54,25.54,0,0,0-7.35,2A19.83,19.83,0,0,1,18.59,43.67ZM18.46,43h.13A19.18,19.18,0,0,0,26.72,41,25.74,25.74,0,0,1,34,38.92V36.28h2.29V7.39H34V4.76a25.74,25.74,0,0,1-7.27-2.07A19.19,19.19,0,0,0,18.58.64h-.24A19.2,19.2,0,0,0,10.2,2.69,25.73,25.73,0,0,1,2.93,4.76V7.39H.64V36.28H2.93v2.64A25.73,25.73,0,0,1,10.2,41,19.18,19.18,0,0,0,18.33,43Z"/><path class="cls-1" d="M18.51,40.81,18,40.25l.08-.08.55.56Zm-.33,0-.54-.57.09-.08.54.57Zm.65,0-.55-.55.08-.08.55.55Zm-1,0-.52-.58.09-.08.52.58Zm1.3,0-.57-.54.08-.09.57.54Zm-1.64,0-.5-.6.09-.08.5.6Zm2,0-.59-.53.08-.09.59.53Zm-2.29,0-.5-.6.09-.08.5.6Zm2.61,0-.58-.5.08-.09.58.5Zm-2.93,0-.48-.62.09-.07.48.62Zm3.25,0-.6-.5.08-.09.6.5Zm-3.59,0-.46-.63.1-.07.46.63Zm3.92,0-.62-.48.07-.09.62.48Zm-4.24,0L15.76,40l.1-.07.46.63Zm4.55,0-.62-.46.07-.1.62.46Zm-4.87,0-.44-.65.1-.07.44.65Zm5.19,0-.63-.46.07-.1.63.46Zm-5.52,0-.42-.66.1-.06.42.66Zm5.85,0-.65-.45.07-.1.65.45Zm-6.16,0-.43-.66.1-.06.43.66Zm6.47,0L21.09,40l.07-.1.64.43Zm-6.79,0-.41-.67.1-.06.41.67Zm7.1,0L21.39,40l.06-.1.66.42Zm-7.43-.06-.39-.68.1-.06.39.68Zm7.75,0-.67-.41.06-.1.67.41Zm-8.06-.06-.39-.68.1-.06.39.68Zm8.37,0L22,39.82l.06-.1.67.39ZM14,40.15l-.37-.69.1-.06.37.69Zm9,0-.68-.39.06-.1.68.39Zm-9.31-.07-.35-.7.11-.05.35.7Zm9.63,0-.69-.38.06-.1.69.38ZM13.38,40l-.35-.7.11-.05.35.7Zm10.24,0-.69-.36.06-.11.69.36Zm-10.54-.08-.34-.7.11-.05.34.7Zm10.85,0-.7-.35.05-.11.7.35Zm-11.15-.08L12.44,39l.11,0,.33.72Zm11.47,0-.71-.34.05-.11.71.34Zm-11.78-.08-.32-.72.11,0,.32.72Zm12.08,0-.7-.33,0-.11.7.33Zm-12.38-.09-.3-.72.11,0,.3.72Zm12.68,0-.72-.32,0-.11.72.32Zm-13-.09-.29-.73.11,0,.29.73Zm13.29,0-.73-.31,0-.11.73.31Zm-13.59-.1-.28-.73.11,0,.28.73Zm13.89,0-.72-.29,0-.11.72.29Zm-14.18-.1L11,38.41l.11,0,.28.73Zm14.47,0L25,38.83l0-.11.73.28ZM11,39l-.28-.73.11,0,.28.73ZM26,39l-.73-.28,0-.11.73.28Zm-15.34-.1-.28-.73.11,0,.28.73Zm15.64,0-.73-.28,0-.11.73.28Zm-15.93-.1-.3-.72.11,0,.3.72Zm16.22,0-.73-.28,0-.11.73.28Zm-16.5-.09-.32-.71.11,0,.32.71Zm16.78,0-.72-.3,0-.11.72.3ZM9.81,38.52l-.34-.72.11-.05.34.72Zm17.37,0-.73-.31,0-.11.73.31ZM9.51,38.41l-.34-.7.11-.05.34.7Zm18,0-.71-.32,0-.11.71.32ZM9.23,38.31l-.36-.7L9,37.56l.36.7Zm18.55,0-.71-.34.05-.11.71.34ZM8.92,38.21l-.37-.69.11-.06.37.69Zm19.15,0-.7-.36.05-.11.7.36ZM8.62,38.11l-.37-.68.1-.06.37.68Zm19.75,0-.69-.36.06-.11.69.36ZM8.32,38l-.39-.68.1-.06.39.68Zm20.35,0L28,37.63l.06-.11.69.38ZM8,37.94l-.4-.68.1-.06.4.68Zm21,0-.68-.38.06-.1.68.38ZM7.71,37.86l-.4-.67.1-.06.4.67Zm21.57,0-.67-.39.06-.1.67.39ZM7.41,37.78,7,37.12l.1-.06.41.67Zm22.19,0-.68-.4.06-.1.68.4ZM7.1,37.71,6.68,37l.1-.06.42.66Zm22.81,0-.67-.41.06-.1.67.41ZM6.79,37.64,6.36,37l.1-.06.43.66Zm23.41,0-.66-.42.06-.1.66.42Zm-23.72,0L6,36.92l.1-.07.44.66Zm24,0-.66-.43.06-.1.66.43Zm-24.35,0-.44-.65.1-.07.44.65Zm24.66,0-.66-.43.07-.1.66.43Zm-25,0-.45-.64.1-.07.45.64Zm25.27,0L30.49,37l.07-.1.65.44Zm-25.59,0-.45-.64.1-.07.45.64Zm25.9,0-.64-.45.07-.1.64.45Zm-26.22,0-.46-.63.1-.07.46.63Zm26.53,0-.64-.45.07-.1.64.45Zm-26.83,0L4.73,37l0,.18H4.6l0-.32-.16-.23.1-.07.09.12v-.11h.12l0,.24.27.37Zm27.15,0-.64-.46.07-.1.64.46Zm.31-.05-.63-.46.07-.1.63.46ZM4.2,36.87l-.08-.08.55-.55.08.08Zm28.56-.15h-.65v-.12h.12l-.07-.07.55-.55.08.08-.54.54h.15l0,0,.34-.27.07.09-.27.21h.23ZM4.2,36.55l-.08-.08.55-.55.08.08Zm28-.25-.08-.08.55-.55.08.08Zm-28-.07-.08-.08.55-.55.08.08Zm28-.25-.08-.08.55-.55.08.08Zm-28-.07-.08-.08.55-.55.08.08Zm28-.25-.08-.08.55-.55.08.08Zm-28-.07-.08-.08L4.67,35l.08.08Zm28-.25-.08-.08.25-.25-.2,0,0-.12.35-.05,0,0-.39-.12,0-.11.45.14,0,0,.08.08.23.07L33,35l-.28-.09,0,0V35h-.09Zm-28-.07-.08-.08.55-.55.08.08ZM33.92,35l-.55-.55.08-.08.55.55Zm-.32,0-.55-.55.08-.08.55.55ZM3.71,35l-.55-.55.08-.08.55.55Zm-.64,0-.27-.27.05.22-.12,0-.1-.39-.11.39-.11,0,.13-.47,0,0,0,0,.06-.22.11,0-.06.23.06.06h0l.41.41Zm1.28,0-.13-.13v.09H4.1v0L4,35l-.55-.55.08-.08.54.54v-.15l-.3-.3.08-.08.22.22v-.18h.12v.29l.22.22Zm-1,0-.55-.55.08-.08.55.55Zm30.85,0-.55-.55.08-.08.55.55Zm-1,0-.55-.55.08-.08.55.55Zm1.49-.36-.48-.12,0,0,0,0L34,34.42l0-.12.19,0,.49-.49.08.08-.3.3.24-.08,0,.11-.35.12.35.09Zm-32.6-.17-.08-.08.55-.55.08.08Zm32.1-.25-.08-.08.55-.55.08.08Zm-32.1-.07L2.09,34l.55-.55.08.08Zm32.1-.25-.08-.08.55-.55.08.08Zm-32.1-.07-.08-.08.55-.55.08.08Zm32.1-.25-.08-.08.55-.55.08.08Zm-32.1-.07-.08-.08.55-.55.08.08Zm32.1-.25-.08-.08.55-.55.08.08Zm-32.1-.07-.08-.08.55-.55.08.08Zm32.1-.25-.08-.08.55-.55.08.08Zm-32.1-.07-.08-.08.55-.55.08.08Zm32.1-.25-.08-.08.55-.55.08.08Zm-32.1-.07-.08-.08.55-.55.08.08Zm32.1-.25-.08-.08.55-.55.08.08Zm-32.1-.07-.08-.08.55-.55.08.08Zm32.1-.25-.08-.08.55-.55.08.08Zm-32.1-.07-.08-.08.55-.55.08.08Zm32.1-.25-.08-.08.55-.55.08.08Zm-32.1-.07-.08-.08.55-.55.08.08Zm32.1-.25-.08-.08.55-.55.08.08Zm-32.1-.07-.08-.08.55-.55.08.08ZM34.27,31l-.08-.08.55-.55.08.08Zm-32.1-.07-.08-.08.55-.55.08.08Zm32.1-.25-.08-.08.55-.55.08.08Zm-32.1-.07-.08-.08L2.64,30l.08.08Zm32.1-.25-.08-.08.55-.55.08.08Zm-32.1-.07-.08-.08.55-.55.08.08ZM34.27,30l-.08-.08.55-.55.08.08ZM2.18,30l-.08-.08.55-.55.08.08Zm32.1-.25-.08-.08.55-.55.08.08Zm-32.1-.07-.08-.08L2.64,29l.08.08Zm32.1-.25-.08-.08.55-.55.08.08Zm-32.1-.07-.08-.08.55-.55.08.08Zm32.1-.25L34.19,29l.55-.55.08.08ZM2.18,29l-.08-.08.55-.55.08.08Zm32.1-.25-.08-.08.55-.55.08.08Zm-32.1-.07-.08-.08L2.64,28l.08.08Zm32.1-.25-.08-.08.55-.55.08.08Zm-32.1-.07-.08-.08.55-.55.08.08Zm32.1-.25L34.19,28l.55-.55.08.08ZM2.18,28,2.09,28l.55-.55.08.08Zm32.1-.25-.08-.08.55-.55.08.08Zm-32.1-.07-.08-.08.55-.55.08.08Zm32.1-.25-.08-.08.55-.55.08.08Zm-32.1-.07-.08-.08.55-.55.08.08Zm32.1-.25-.08-.08.55-.55.08.08Zm-32.1-.07L2.09,27l.55-.55.08.08Zm32.1-.25-.08-.08.55-.55.08.08Zm-32.1-.07-.08-.08.55-.55.08.08Zm32.1-.25-.08-.08.55-.55.08.08Zm-32.1-.07-.08-.08.55-.55.08.08Zm32.1-.25-.08-.08.55-.55.08.08Zm-32.1-.07L2.09,26l.55-.55.08.08Zm32.1-.25-.08-.08.55-.55.08.08ZM2.18,25.8l-.08-.08.55-.55.08.08Zm32.1-.25-.08-.08.55-.55.08.08Zm-32.1-.07-.08-.08.55-.55.08.08Zm32.1-.25-.08-.08.55-.55.08.08Zm-32.1-.07-.08-.08.55-.55.08.08Zm32.1-.25-.08-.08.55-.55.08.08Zm-32.1-.07-.08-.08.55-.55.08.08Zm32.1-.25-.08-.08.55-.55.08.08Zm-32.1-.07-.08-.08.55-.55.08.08Zm32.1-.25-.08-.08.55-.55.08.08ZM2.18,24.2l-.08-.08.55-.55.08.08Zm32.1-.25-.08-.08.55-.55.08.08Zm-32.1-.07-.08-.08.55-.55.08.08Zm32.1-.25-.08-.08.55-.55.08.08Zm-32.1-.07-.08-.08.55-.55.08.08Zm32.1-.25-.08-.08.55-.55.08.08Zm-32.1-.07-.08-.08.55-.55.08.08ZM34.27,23l-.08-.08.55-.55.08.08Zm-32.1-.07-.08-.08.55-.55.08.08Zm32.1-.25-.08-.08.55-.55.08.08ZM2.18,22.6l-.08-.08L2.64,22l.08.08Zm32.1-.25-.08-.08.55-.55.08.08Zm-32.1-.07-.08-.08.55-.55.08.08ZM34.27,22l-.08-.08.55-.55.08.08ZM2.18,22l-.08-.08.55-.55.08.08Zm32.1-.25-.08-.08.55-.55.08.08Zm-32.1-.07-.08-.08L2.64,21l.08.08Zm32.1-.25-.08-.08.55-.55.08.08Zm-32.1-.07-.08-.08.55-.55.08.08Zm32.1-.25L34.19,21l.55-.55.08.08ZM2.18,21l-.08-.08.55-.55.08.08Zm32.1-.25-.08-.08.55-.55.08.08Zm-32.1-.07-.08-.08L2.64,20l.08.08Zm32.1-.25-.08-.08.55-.55.08.08Zm-32.1-.07-.08-.08.55-.55.08.08Zm32.1-.25L34.19,20l.55-.55.08.08ZM2.18,20,2.09,20l.55-.55.08.08Zm32.1-.25-.08-.08.55-.55.08.08Zm-32.1-.07-.08-.08.55-.55.08.08Zm32.1-.25-.08-.08.55-.55.08.08ZM2.18,19.4l-.08-.08.55-.55.08.08Zm32.1-.25-.08-.08.55-.55.08.08Zm-32.1-.07L2.09,19l.55-.55.08.08Zm32.1-.25-.08-.08.55-.55.08.08Zm-32.1-.07-.08-.08.55-.55.08.08Zm32.1-.25-.08-.08.55-.55.08.08Zm-32.1-.07-.08-.08.55-.55.08.08Zm32.1-.25-.08-.08.55-.55.08.08Zm-32.1-.07L2.09,18l.55-.55.08.08Zm32.1-.25-.08-.08.55-.55.08.08Zm-32.1-.07-.08-.08.55-.55.08.08Zm32.1-.25-.08-.08.55-.55.08.08Zm-32.1-.07-.08-.08.55-.55.08.08Zm32.1-.25-.08-.08.55-.55.08.08Zm-32.1-.07-.08-.08.55-.55.08.08Zm32.1-.25-.08-.08.55-.55.08.08Zm-32.1-.07-.08-.08.55-.55.08.08Zm32.1-.25-.08-.08.55-.55.08.08Zm-32.1-.07-.08-.08.55-.55.08.08Zm32.1-.25-.08-.08.55-.55.08.08Zm-32.1-.07-.08-.08.55-.55.08.08ZM34.27,16l-.08-.08.55-.55.08.08Zm-32.1-.07-.08-.08.55-.55.08.08Zm32.1-.25-.08-.08.55-.55.08.08Zm-32.1-.07-.08-.08.55-.55.08.08Zm32.1-.25-.08-.08.55-.55.08.08Zm-32.1-.07-.08-.08.55-.55.08.08ZM34.27,15l-.08-.08.55-.55.08.08Zm-32.1-.07-.08-.08.55-.55.08.08Zm32.1-.25-.08-.08.55-.55.08.08Zm-32.1-.07-.08-.08L2.64,14l.08.08Zm32.1-.25-.08-.08.55-.55.08.08Zm-32.1-.07-.08-.08.55-.55.08.08ZM34.27,14,34.19,14l.55-.55.08.08ZM2.18,14l-.08-.08.55-.55.08.08Zm32.1-.25-.08-.08.55-.55.08.08Zm-32.1-.07-.08-.08L2.64,13l.08.08Zm32.1-.25-.08-.08.55-.55.08.08Zm-32.1-.07-.08-.08.55-.55.08.08Zm32.1-.25L34.19,13l.55-.55.08.08ZM2.18,13l-.08-.08.55-.55.08.08Zm32.1-.25-.08-.08.55-.55.08.08Zm-32.1-.07-.08-.08.55-.55.08.08Zm32.1-.25-.08-.08.55-.55.08.08Zm-32.1-.07-.08-.08.55-.55.08.08Zm32.1-.25L34.19,12l.55-.55.08.08Zm-32.1-.07L2.09,12l.55-.55.08.08Zm32.1-.25-.08-.08.55-.55.08.08Zm-32.1-.07-.08-.08.55-.55.08.08Zm32.1-.25-.08-.08.55-.55.08.08Zm-32.1-.07-.08-.08.55-.55.08.08Zm32.1-.25-.08-.08.55-.55.08.08Zm-32.1-.07L2.09,11l.55-.55.08.08Zm32.1-.25-.08-.08.55-.55.08.08Zm-32.1-.07-.08-.08.55-.55.08.08Zm32.1-.25-.08-.08.55-.55.08.08Zm-32.1-.07-.08-.08.55-.55.08.08Zm32.1-.25-.08-.08.55-.55.08.08Zm-32.1-.07-.08-.08.55-.55.08.08Zm32.1-.25-.08-.08.55-.55.08.08ZM2.18,9.82l-.08-.08.3-.3-.24.08,0-.11.36-.12-.35-.09,0-.12.48.12,0,0,0,0,.21.05,0,.12-.19,0Zm32.11-.28-.11,0,.06-.23-.06-.06h0l-.41-.41.08-.08.27.27-.05-.22.12,0,.1.39.11-.39.11,0-.13.47,0,0,0,0Zm-.61-.18-.55-.55.08-.08.55.55Zm-30.21,0L2.91,8.8,3,8.72l.55.55ZM34,9.36l-.55-.55.08-.08.55.55Zm-1,0-.55-.55L32.25,9,32.16,9l.55-.55.08.08-.23.23.55.55Zm-29.25,0L3.23,8.8l.08-.08.55.55Zm-.64,0L2.59,8.8l.08-.08.55.55Zm30.21,0L32.8,8.8l.08-.08.55.55ZM4.1,9.36,3.55,8.8l.08-.08.55.55Zm.59-.29-.45-.14,0,0-.08-.08-.23-.07,0-.11.28.09,0,0V8.7h.09l.36-.36.08.08-.25.25.2,0,0,.12-.36.05,0,0L4.73,9Zm27.55-.35-.08-.08.55-.55.08.08Zm-28-.07-.08-.08L4.67,8l.08.08Zm28-.25-.08-.08.55-.55.08.08Zm-28-.07-.08-.08.55-.55.08.08Zm28-.25L32.16,8l.55-.55.08.08ZM4.2,8l-.08-.08.55-.55.08.08Zm28-.25-.08-.08.55-.55.08.08Zm-28-.07L4.12,7.6l.54-.54H4.5l0,0-.34.27-.07-.09.27-.21H4.16V6.95h.65v.12H4.69l.07.07Zm28-.25-.08-.08.55-.55.08.08Zm.11-.35L32.27,7v.11h-.12l0-.24-.27-.37.1-.07.19.26,0-.18h.12l0,.32.17.23ZM32,7l-.46-.63.1-.07.46.63Zm-27,0-.63-.46.07-.1.63.46ZM31.73,7l-.45-.64.1-.07.45.64ZM5.42,7,4.78,6.5l.07-.1.64.46Zm26,0L31,6.29l.1-.07.45.64ZM5.73,6.9l-.64-.45.07-.1.64.45Zm25.36,0-.44-.65.1-.07.44.65Zm-25,0L5.4,6.4l.07-.1.64.45Zm24.73,0-.44-.66.1-.07.44.66Zm-24.41,0-.65-.44.07-.1.65.44Zm24.09,0L30,6.1l.1-.06.43.65Zm-23.78,0L6,6.28l.07-.1.66.43Zm23.46,0L29.72,6l.1-.06.42.66ZM7,6.64l-.66-.43.06-.1.66.43Zm22.82,0L29.41,6l.1-.06.41.67ZM7.31,6.57l-.66-.42.06-.1.66.42Zm22.2,0-.4-.67.1-.06.4.67ZM7.62,6.5,7,6.09,7,6l.67.41Zm21.58,0-.4-.68.1-.06.4.68ZM7.94,6.42,7.27,6l.06-.1.68.4Zm20.94,0-.38-.68.1-.06.38.68ZM8.25,6.33l-.67-.39.06-.1.67.39Zm20.32,0-.37-.68.1-.06.37.68Zm-20-.06-.68-.39.06-.1.68.39Zm19.7,0-.37-.7L28,5.47l.37.7ZM8.88,6.15l-.69-.37.06-.11L8.94,6Zm19.07,0-.36-.7.11-.05.36.7ZM9.18,6.05,8.5,5.69l.06-.11.69.36ZM27.64,6l-.34-.7.11-.05.34.7ZM9.49,6l-.7-.36.05-.11.7.36Zm17.85,0L27,5.21l.11-.05.34.72ZM9.8,5.84,9.1,5.5l.05-.11.71.34ZM27,5.81l-.32-.71.11,0,.32.71ZM10.1,5.73,9.39,5.4l0-.11.71.32Zm16.62,0L26.42,5l.11,0,.3.72ZM10.42,5.61l-.73-.31,0-.11.73.31Zm16,0-.28-.73.11,0,.28.73Zm-15.7-.09L10,5.18l0-.11.72.3Zm15.41,0-.28-.73.11,0,.28.73ZM11,5.35l-.73-.28,0-.11.73.28Zm14.83,0-.28-.73.11,0,.28.73ZM11.3,5.22l-.73-.28,0-.11.73.28Zm14.24,0-.28-.73.11,0,.28.73ZM11.59,5.09l-.73-.28,0-.11.73.28ZM25.24,5,25,4.31l.11,0,.29.73ZM11.88,5l-.73-.28,0-.11.73.28ZM25,4.92l-.3-.72.11,0,.3.72ZM12.16,4.84l-.72-.29,0-.11.72.29Zm12.51,0-.32-.72.11,0,.32.72ZM12.46,4.72l-.73-.31,0-.11.73.31Zm11.92,0L24,4l.11,0,.33.72ZM12.75,4.61,12,4.29l0-.11.72.32Zm11.32,0-.34-.7.11-.05.34.7ZM13,4.5l-.7-.33,0-.11.7.33Zm10.75,0-.35-.7.11-.05.35.7ZM13.34,4.4l-.71-.34.05-.11.71.34Zm10.15,0-.35-.7.11-.05.35.7ZM13.64,4.3l-.7-.35L13,3.84l.7.35Zm9.54,0-.37-.69.1-.06.37.69Zm-9.25-.06-.69-.36.06-.11L14,4.1Zm9,0L22.5,3.5l.1-.06.39.68Zm-8.65-.06-.69-.38.06-.1L14.3,4Zm8.34,0-.39-.68.1-.06.39.68Zm-8-.06-.68-.39.06-.1.68.39Zm7.73,0-.41-.67.1-.06.41.67ZM14.84,4l-.67-.4.06-.1.67.4Zm7.14,0-.42-.66.1-.06.42.66Zm-6.83,0-.67-.41.06-.1.67.41Zm6.52,0-.43-.66.1-.06.43.66Zm-6.21,0-.66-.43.06-.1.66.43Zm5.9,0-.44-.65.1-.07.44.65Zm-5.6,0-.64-.43.07-.1.64.43Zm5.3,0-.46-.63L20.7,3l.46.63Zm-5,0-.65-.45.07-.1.65.45Zm4.67,0-.46-.63.1-.07.46.63Zm-4.36,0-.63-.46.07-.1.63.46Zm4,0L20,3,20,3l.48.62Zm-3.74,0-.62-.47.07-.1.62.47Zm3.45,0-.5-.6.09-.08.5.6ZM17,3.58l-.62-.49L16.46,3l.62.49Zm2.81,0-.5-.6.09-.08.5.6Zm-2.49,0-.6-.5L16.8,3l.6.5Zm2.18,0L19,3l.09-.08.52.58Zm-1.88,0L17,3l.08-.09.59.5Zm1.58,0L18.66,3l.09-.08.54.57Zm-1.26,0L17.35,3l.08-.09.59.53Zm.94,0-.55-.56.08-.08.55.56Zm-.62,0L17.69,3l.08-.09.57.54Zm.3,0L18,3l.08-.08.55.55Z"/></g></g></svg>