 <svg class="logo logo_small" xmlns="http://www.w3.org/2000/svg" xmlns:xlink="http://www.w3.org/1999/xlink" version="1.1" viewBox="0 0 740.2 138" xml:space="preserve" enable-background="new 0 0 740.2 138">
        <defs>
            <style type="text/css">
                .st34{fill:#FFFFFF; stroke-width:0px;}
            </style>
            <filter id="logo-dropshadow" height="130%">
                <feGaussianBlur in="SourceAlpha" stdDeviation="3"/> <!-- stdDeviation is how much to blur -->
                <feOffset dx="2" dy="2" result="offsetblur"/> <!-- how much to offset -->
                <feMerge>
                      <feMergeNode/> <!-- this contains the offset blurred image -->
                      <feMergeNode in="SourceGraphic"/> <!-- this contains the element that the filter is applied to -->
                </feMerge>
            </filter>
        </defs>
        <title>
          Pacific Union Financial
        </title>
        <g style="filter:url(#logo-dropshadow)">
            <path class="st34" d="M104.9 85.5c0 2.8 0 4.5-3.4 4.8 -1.4 0.1-2.3 0.1-2.3 1.1s0.9 1 1.4 1c1.3 0 6.9-0.3 8.1-0.3 2.3 0 5.9 0.3 8.2 0.3 0.5 0 1.4 0 1.4-0.9s-0.9-1.1-2.4-1.1c-3.7-0.2-3.7-2-3.7-4.8V73.3c0-0.9 0-1.2 0.6-1.2 0.8 0.2 1.5 0.4 2.3 0.7 1.9 0.8 3.9 1.2 5.9 1.3 5.5 0 12.8-3.7 12.8-11.9 0-4.8-3-11.9-14.1-11.9 -1.8 0-9.5 0.3-11.1 0.3 -1.1 0-6-0.3-7-0.3 -2.2 0-2.5 0-2.5 0.9s0.9 1 2.3 1.1c3.4 0.2 3.4 2 3.4 4.8L104.9 85.5 104.9 85.5zM112.1 57.1c0-3.3 0.3-5.2 4.2-5.2 5.3-0.1 9.7 4.1 9.8 9.5 0 0.2 0 0.4 0 0.5 0.3 4.9-3.5 9.1-8.4 9.3 -0.1 0-0.2 0-0.4 0 -1.5 0.1-3.1-0.2-4.5-0.8 -0.8-0.3-0.8-0.6-0.8-1.8L112.1 57.1 112.1 57.1z"/>
            <path class="st34" d="M150.1 72.8c0 1.2-0.1 1.8-1.7 2.4 -10.4 4.1-13.9 7-13.9 11.9 0 1 0.3 5.7 5.2 5.7 3 0 6.7-2.5 9.5-4.8 0.1-0.1 0.3-0.2 0.5-0.3 0.2 0 0.3 0 0.9 1.3 0.8 1.6 2.1 3.6 4.7 3.6 3 0 7.1-3.2 7.1-4.8 0-0.3-0.3-0.6-0.6-0.6 -0.3 0-0.4 0.1-1.1 0.7 -0.6 0.4-1.2 0.7-1.9 0.7 -1.9 0-2.1-1.7-2.1-3.8V66.1c0-2.8-1.6-4.9-7.9-4.9 -10.2 0-14.5 6.9-14.5 9.2 0 0.8 0.6 1.4 1.4 1.4 0 0 0 0 0.1 0 0.1 0 4-0.3 5-3.3 0.5-1.6 2-5.7 5.9-5.7 3.2 0 3.4 3.2 3.4 5.6L150.1 72.8 150.1 72.8zM150.1 81.4c0 4.7-2.6 7.1-5.7 7.1 -1.5 0-3-1.2-3-4.4 0-1.3 0-3.9 4.2-5.9 1.1-0.7 2.4-1.2 3.7-1.4 0.3-0.1 0.7 0.2 0.7 0.5 0 0.1 0 0.1 0 0.2L150.1 81.4 150.1 81.4z"/>
            <path class="st34" d="M170.7 76.5c0-10.5 6.9-13.9 9.8-13.9 1.9 0 3.2 0.9 5.2 3.6 2.2 3 3 4 4.2 4 1.7 0 2-3.8 2-4.7 0-3.9-9.3-4.4-10.4-4.4 -8.3 0-18.3 5.8-18.3 16.7 0 10.4 9.1 14.9 16.8 14.9 7.2 0 12.2-4.3 12.2-5.7 0-0.3-0.3-0.6-0.6-0.7 -0.3 0.1-0.5 0.2-0.8 0.4 -5.7 4.1-13.7 2.8-17.8-2.9C171.5 81.8 170.7 79.2 170.7 76.5z"/>
            <path class="st34" d="M200.3 85.6c0 3.7 0 4.4-2.9 4.8 -1.5 0.2-2 0.5-2 1.1 0 0.9 0.7 0.9 1.1 0.9 1.1 0 4.2-0.3 7.1-0.3 3.1 0 6 0.3 7 0.3 0.5 0 1.1 0 1.1-0.8 0-0.6-0.3-0.9-2-1.1 -2.9-0.4-2.9-1.2-2.9-4.9V63.8c0-1.5 0-2.3-0.7-2.3 -0.5 0-2.6 1.8-3.1 2.2 -1.8 1.2-3.8 2.1-5.9 2.8 -0.6 0-1 0.5-1.1 1.1 0 0.8 1.1 0.9 1.3 0.9 2.4 0.1 3 1.1 3 4.5L200.3 85.6 200.3 85.6zM207.2 53.8c0-2-1.6-3.7-3.6-3.8 0 0 0 0-0.1 0 -2.1 0-3.7 1.6-3.8 3.7 0.1 2.1 1.9 3.6 4 3.5C205.6 57.1 207 55.6 207.2 53.8L207.2 53.8z"/>
            <path class="st34" d="M224.5 66.6c0-1.2 0.3-1.6 1.5-1.6 3.6 0 4.7 0.1 6.1 0.1 0.7 0 1-0.2 1-0.8 0-1.6-0.3-2-0.9-2s-1.1 0.1-3 0.1h-3.2c-1.2 0-1.5-0.3-1.5-1.8 0-2.4 0.3-10.7 4.2-10.7 1.3 0 1.9 0.7 3.8 3.4 0.5 0.7 1.3 1.2 2.1 1.3 1.2 0 2.8-3.1 2.8-4 0-2.6-4.7-2.9-5.6-2.9 -4.3-0.1-12.2 3.4-13.3 11.6 -0.4 3-0.6 3.2-2 3.4 -1.8 0.3-2.6 0.7-2.6 1.5 0 0.4 0.3 0.8 0.8 0.8 0.1 0 0.1 0 0.2 0 0.3 0 1.5-0.1 1.6-0.1 1.1 0 1.6 0.2 1.6 2.4v18c0 2.8 0 4.6-3.4 4.8 -1.4 0.1-2.4 0.1-2.4 1.1s0.9 1 1.4 1 3.1-0.3 7.6-0.3c4.7 0 7 0.3 7.7 0.3s1.4 0 1.4-0.9 -0.9-1.1-2.4-1.1c-3.4-0.2-3.4-2-3.4-4.8L224.5 66.6 224.5 66.6z"/>
            <path class="st34" d="M238.2 85.6c0 3.7 0 4.4-2.9 4.8 -1.5 0.2-2 0.5-2 1.1 0 0.9 0.7 0.9 1.1 0.9 1.1 0 4.2-0.3 7.1-0.3 3.1 0 6 0.3 7 0.3 0.5 0 1.1 0 1.1-0.8 0-0.6-0.3-0.9-2-1.1 -2.9-0.4-2.9-1.2-2.9-4.9V63.8c0-1.5 0-2.3-0.7-2.3 -0.5 0-2.6 1.8-3.1 2.2 -1.8 1.2-3.8 2.2-5.9 2.8 -0.6 0-1.1 0.5-1.1 1 0 0.8 1.1 0.9 1.3 0.9 2.4 0.1 3 1.1 3 4.5L238.2 85.6 238.2 85.6zM245.1 53.8c0-2-1.6-3.7-3.6-3.8 0 0 0 0-0.1 0 -2.1 0-3.7 1.6-3.8 3.7 0.1 2.1 1.8 3.7 3.9 3.6C243.5 57.2 245 55.7 245.1 53.8L245.1 53.8z"/>
            <path class="st34" d="M257 76.5c0-10.5 6.9-13.9 9.8-13.9 1.9 0 3.2 0.9 5.2 3.6 2.2 3 3 4 4.2 4 1.7 0 2-3.8 2-4.7 0-3.9-9.3-4.4-10.4-4.4 -8.3 0-18.3 5.8-18.3 16.7 0 10.4 9.1 14.9 16.8 14.9 7.2 0 12.2-4.3 12.2-5.7 0-0.3-0.3-0.6-0.6-0.7 -0.3 0.1-0.5 0.2-0.7 0.3 -5.7 4.1-13.7 2.8-17.8-2.9C257.8 81.7 257 79.2 257 76.5z"/>
            <path class="st34" d="M317.2 79.7c0 4-0.8 11.2-11.5 11.2 -11.5 0-11.5-8.3-11.5-12.9V56.9c0-2.6 0-4.4 3.5-4.6 1.4-0.1 2.4-0.1 2.4-1.1s-0.8-1-1.4-1 -3.5 0.3-8.1 0.3 -7.3-0.3-7.9-0.3 -1.4 0-1.4 0.9 1 1.1 2.4 1.1c3.4 0.2 3.4 2 3.4 4.8V79c0 11.3 8.5 13.8 17.6 13.8 15.1 0 15.1-9.7 15.1-13.4v-21c0-5.6 0.7-6 3.8-6.2 0.9-0.1 2.1-0.1 2.1-1.1 0-0.6-0.5-1-1-0.9 0 0-0.1 0-0.1 0 -0.9 0-3.9 0.3-6.5 0.3 -3.1 0-4.6-0.3-5.6-0.3 -0.6 0-1.5 0-1.5 0.9s0.8 1 2.2 1.1c3.6 0.3 4.2 1 4.2 6.7L317.2 79.7 317.2 79.7z"/>
            <path class="st34" d="M349.5 85.5c0 3.8 0 4.5-2.9 4.9 -1.5 0.2-2 0.5-2 1.1 0 0.9 0.7 0.9 1.1 0.9 1.1 0 6-0.3 7.1-0.3s6 0.3 7 0.3c0.5 0 1.1 0 1.1-0.8 0-0.6-0.3-0.9-2-1.1 -2.9-0.4-2.9-1.2-2.9-5V69.8c0-6.2-4.8-8.7-9.3-8.7 -3.8 0-5.8 0.9-9.9 4.7 -0.3 0.2-0.6 0.4-0.9 0.4 -0.3 0-0.3-0.2-0.3-1.3v-3.3c0-0.6-0.1-1.2-0.7-1.2 -0.6 0.2-1.1 0.7-1.5 1.2 -2.1 2.4-6.4 4.2-6.9 4.4 -0.7 0.2-0.9 0.5-0.9 0.9 0 0.9 0.7 0.9 1.8 0.9 2 0.1 2 1.6 2 4.8v13c0 3.8 0 4.5-2.9 4.9 -1.5 0.2-2 0.5-2 1.1 0 0.9 0.7 0.9 1.2 0.9 1.1 0 5.9-0.3 6.9-0.3 1.3 0 6 0.3 7.1 0.3 0.5 0 1.1 0 1.1-0.8 0-0.6-0.3-0.9-2-1.1 -2.9-0.4-2.9-1.2-2.9-5V71.2c-0.1-1.4 0.3-2.8 1.3-3.8 1.5-1.5 3.5-2.3 5.6-2.3 6.6 0 6.6 5 6.6 8.2V85.5z"/>
            <path class="st34" d="M367.2 85.6c0 3.7 0 4.4-2.9 4.8 -1.5 0.2-2 0.5-2 1.1 0 0.9 0.7 0.9 1.1 0.9 1.1 0 4.2-0.3 7.1-0.3 3.1 0 6 0.3 7 0.3 0.5 0 1.1 0 1.1-0.8 0-0.6-0.3-0.9-2-1.1 -2.9-0.4-2.9-1.2-2.9-4.9V63.8c0-1.5 0-2.3-0.7-2.3 -0.5 0-2.6 1.8-3.1 2.2 -1.8 1.2-3.8 2.1-5.9 2.8 -0.6 0-1.1 0.5-1.1 1 0 0.8 1.1 0.9 1.3 0.9 2.4 0.1 3 1.1 3 4.5L367.2 85.6 367.2 85.6zM374.1 53.8c0-2-1.6-3.7-3.6-3.8 0 0 0 0-0.1 0 -2.1 0-3.7 1.6-3.8 3.7 0.1 2.1 1.9 3.6 4 3.5C372.5 57.1 374 55.6 374.1 53.8L374.1 53.8z"/>
            <path class="st34" d="M412.4 76.4c0-10.2-8.5-15.2-16.2-15.2 -8.7 0.1-15.8 7.2-15.7 16s7.2 15.8 16 15.7C405.8 92.8 412.4 85.3 412.4 76.4zM386.8 75.8c0-8.2 4-13 8.8-13 7.3 0 9.8 9.7 9.8 14.3 0 7.9-4.2 14.2-9.1 14.2C390.9 91.2 386.8 84.1 386.8 75.8L386.8 75.8z"/>
            <path class="st34" d="M437.7 85.5c0 3.8 0 4.5-2.9 4.9 -1.5 0.2-2 0.5-2 1.1 0 0.9 0.7 0.9 1.1 0.9 1.1 0 6-0.3 7.1-0.3s6 0.3 7 0.3c0.5 0 1.1 0 1.1-0.8 0-0.6-0.3-0.9-2-1.1 -2.9-0.4-2.9-1.2-2.9-5V69.8c0-6.2-4.8-8.7-9.3-8.7 -3.8 0-5.8 0.9-9.9 4.7 -0.2 0.3-0.6 0.4-0.9 0.4 -0.3 0-0.3-0.2-0.3-1.3v-3.3c0-0.6-0.1-1.2-0.7-1.2 -0.6 0.2-1.1 0.7-1.5 1.2 -2.1 2.4-6.4 4.2-6.9 4.4 -0.7 0.2-0.9 0.5-0.9 0.9 0 0.9 0.7 0.9 1.8 0.9 2 0.1 2 1.6 2 4.8v13c0 3.8 0 4.5-2.9 4.9 -1.5 0.2-2 0.5-2 1.1 0 0.9 0.7 0.9 1.2 0.9 1.1 0 5.9-0.3 6.9-0.3 1.3 0 6 0.3 7.1 0.3 0.5 0 1.1 0 1.1-0.8 0-0.6-0.3-0.9-2-1.1 -2.9-0.4-2.9-1.2-2.9-5V71.2c-0.1-1.4 0.3-2.8 1.3-3.8 1.5-1.5 3.5-2.3 5.6-2.3 6.6 0 6.6 5 6.6 8.2L437.7 85.5 437.7 85.5z"/>
            <path class="st34" d="M459 85.5c0 2.8 0 4.5-3.4 4.8 -1.4 0.1-2.4 0.1-2.4 1.1s0.9 1 1.4 1c2.2 0 5.8-0.3 8-0.3s5.9 0.3 8.1 0.3c0.5 0 1.4 0 1.4-0.9s-0.9-1.1-2.9-1.1c-3.1-0.2-3.1-2.2-3.1-4.8V74c0-3.2 0-3.2 5-3.2 1.7 0 6 0 6.9 3.6 0.1 0.3 0.6 2.2 0.7 2.5 0 0.6 0.4 1 1 1.1 0.8 0 0.8-0.8 0.8-1.3l-0.3-3.2c-0.1-1.5-0.1-2.7-0.1-3.3 0-1 0.2-5.6 0.2-6.5 0-0.7-0.1-1.1-0.8-1.1 -0.6 0.1-1 0.5-1 1.1 -1.1 3.4-1.8 5-7.3 5 -1 0-3.1 0-4.1-0.1 -1-0.1-1.1-0.2-1.1-3.8v-9c0-3.2 1.1-3.3 3.4-3.3 9.9 0 11 2.2 12.6 5.9 0.1 0.3 0.6 1.3 1.3 1.3s0.7-1.1 0.7-1.3v-7.1c0-0.9-0.1-1.2-1.1-1.2 -0.6 0.1-1.3 0.1-2 0.1 -1.8 0.1-5.2 0.1-12.2 0.1h-0.8c-6.7 0-10-0.1-11.7-0.1 -0.6 0-1.3-0.1-1.9-0.1 -0.6-0.2-1.1 0.2-1.3 0.7 0 0.1 0 0.1 0 0.2 0 0.9 1 1 2.4 1.1 3.4 0.2 3.4 2 3.4 4.8L459 85.5 459 85.5z"/>
            <path class="st34" d="M490.7 85.6c0 3.7 0 4.4-2.9 4.8 -1.5 0.2-2 0.5-2 1.1 0 0.9 0.7 0.9 1.1 0.9 1.1 0 4.2-0.3 7.1-0.3 3.1 0 6 0.3 7 0.3 0.5 0 1.1 0 1.1-0.8 0-0.6-0.3-0.9-2-1.1 -2.9-0.4-2.9-1.2-2.9-4.9V63.8c0-1.5 0-2.3-0.7-2.3 -0.5 0-2.6 1.8-3.1 2.2 -1.8 1.2-3.8 2.2-5.9 2.8 -0.6 0-1 0.5-1.1 1.1 0 0.8 1.1 0.9 1.3 0.9 2.4 0.1 3 1.1 3 4.5L490.7 85.6 490.7 85.6zM497.6 53.8c0-2-1.6-3.7-3.6-3.8 0 0 0 0-0.1 0 -2.1 0-3.7 1.6-3.8 3.7 0.1 2.1 1.8 3.7 3.9 3.6C496 57.2 497.5 55.7 497.6 53.8L497.6 53.8z"/>
            <path class="st34" d="M528.3 85.5c0 3.8 0 4.5-2.9 4.9 -1.5 0.2-2 0.5-2 1.1 0 0.9 0.7 0.9 1.1 0.9 1.1 0 6-0.3 7.1-0.3s6 0.3 7 0.3c0.5 0 1.1 0 1.1-0.8 0-0.6-0.3-0.9-2-1.1 -2.9-0.4-2.9-1.2-2.9-5V69.8c0-6.2-4.8-8.7-9.3-8.7 -3.8 0-5.8 0.9-9.9 4.7 -0.2 0.3-0.6 0.4-0.9 0.4 -0.3 0-0.3-0.2-0.3-1.3v-3.3c0-0.6-0.1-1.2-0.7-1.2 -0.6 0.2-1.1 0.7-1.5 1.2 -2.1 2.4-6.4 4.2-6.9 4.4 -0.7 0.2-0.9 0.5-0.9 0.9 0 0.9 0.7 0.9 1.8 0.9 2 0.1 2 1.6 2 4.8v13c0 3.8 0 4.5-2.9 4.9 -1.5 0.2-2 0.5-2 1.1 0 0.9 0.7 0.9 1.2 0.9 1.1 0 5.9-0.3 6.9-0.3 1.3 0 6 0.3 7.1 0.3 0.5 0 1.1 0 1.1-0.8 0-0.6-0.3-0.9-2-1.1 -2.9-0.4-2.9-1.2-2.9-5V71.2c-0.1-1.4 0.3-2.8 1.3-3.8 1.5-1.5 3.5-2.3 5.7-2.3 6.6 0 6.6 5 6.6 8.2L528.3 85.5 528.3 85.5z"/>
            <path class="st34" d="M557.8 72.8c0 1.2-0.1 1.8-1.7 2.4 -10.4 4.1-13.9 7-13.9 11.9 0 1 0.3 5.7 5.2 5.7 3 0 6.7-2.5 9.5-4.8 0.1-0.1 0.3-0.2 0.5-0.3 0.2 0 0.3 0 0.9 1.3 0.8 1.6 2.1 3.6 4.7 3.6 3 0 7.1-3.2 7.1-4.8 0-0.3-0.3-0.6-0.6-0.6 -0.3 0-0.4 0.1-1.1 0.7 -0.6 0.4-1.3 0.7-2 0.7 -1.9 0-2.1-1.7-2.1-3.8V66.1c0-2.8-1.5-4.9-7.9-4.9 -10.2 0-14.5 6.9-14.5 9.2 0 0.8 0.6 1.4 1.4 1.4 0 0 0 0 0.1 0 0.1 0 4-0.3 5-3.3 0.5-1.6 2-5.7 5.9-5.7 3.2 0 3.4 3.2 3.4 5.6v4.4H557.8zM557.8 81.4c0 4.7-2.6 7.1-5.7 7.1 -1.5 0-3-1.2-3-4.4 0-1.3 0-3.9 4.2-5.9 1.1-0.7 2.4-1.2 3.7-1.4 0.3-0.1 0.7 0.2 0.7 0.5 0 0.1 0 0.1 0 0.2L557.8 81.4 557.8 81.4z"/>
            <path class="st34" d="M596 85.5c0 3.8 0 4.5-2.9 4.9 -1.5 0.2-2 0.5-2 1.1 0 0.9 0.7 0.9 1.1 0.9 1.1 0 6-0.3 7.1-0.3s6 0.3 7 0.3c0.5 0 1.1 0 1.1-0.8 0-0.6-0.3-0.9-2-1.1 -2.9-0.4-2.9-1.2-2.9-5V69.8c0-6.2-4.8-8.7-9.3-8.7 -3.8 0-5.8 0.9-9.9 4.7 -0.2 0.3-0.6 0.4-0.9 0.4 -0.3 0-0.3-0.2-0.3-1.3v-3.3c0-0.6-0.1-1.2-0.7-1.2 -0.6 0.2-1.2 0.7-1.5 1.2 -2.1 2.4-6.4 4.2-6.9 4.4 -0.7 0.2-0.9 0.5-0.9 0.9 0 0.9 0.7 0.9 1.8 0.9 2 0.1 2 1.6 2 4.8v12.9c0 3.8 0 4.5-2.9 4.9 -1.5 0.2-2 0.5-2 1.1 0 0.9 0.7 0.9 1.2 0.9 1.1 0 5.9-0.3 6.9-0.3 1.3 0 6 0.3 7.1 0.3 0.5 0 1.1 0 1.1-0.8 0-0.6-0.3-0.9-2-1.1 -2.9-0.4-2.9-1.2-2.9-5V71.2c-0.1-1.4 0.3-2.8 1.3-3.8 1.5-1.5 3.5-2.3 5.7-2.3 6.6 0 6.6 5 6.6 8.2L596 85.5 596 85.5z"/>
            <path class="st34" d="M614.7 76.5c0-10.5 6.9-13.9 9.8-13.9 1.9 0 3.2 0.9 5.2 3.6 2.2 3 3 4 4.2 4 1.7 0 2-3.8 2-4.7 0-3.9-9.3-4.4-10.4-4.4 -8.3 0-18.3 5.8-18.3 16.7 0 10.4 9.1 14.9 16.8 14.9 7.2 0 12.2-4.3 12.2-5.7 0-0.3-0.3-0.6-0.6-0.7 -0.3 0.1-0.5 0.2-0.7 0.3 -5.7 4.1-13.7 2.8-17.8-2.9C615.6 81.7 614.7 79.2 614.7 76.5z"/>
            <path class="st34" d="M644.3 85.6c0 3.7 0 4.4-2.9 4.8 -1.5 0.2-2 0.5-2 1.1 0 0.9 0.7 0.9 1.1 0.9 1.1 0 4.2-0.3 7.1-0.3 3.1 0 6 0.3 7 0.3 0.5 0 1.1 0 1.1-0.8 0-0.6-0.3-0.9-2-1.1 -2.9-0.4-2.9-1.2-2.9-4.9V63.8c0-1.5 0-2.3-0.7-2.3 -0.5 0-2.6 1.8-3.1 2.2 -1.8 1.2-3.8 2.2-5.9 2.8 -0.6 0-1 0.5-1.1 1.1 0 0.8 1.1 0.9 1.3 0.9 2.4 0.1 3 1.1 3 4.5L644.3 85.6 644.3 85.6zM651.2 53.8c0-2-1.6-3.7-3.6-3.8 0 0 0 0-0.1 0 -2.1 0-3.7 1.6-3.8 3.7 0.1 2.1 1.8 3.7 3.9 3.6C649.6 57.2 651.1 55.7 651.2 53.8L651.2 53.8z"/>
            <path class="st34" d="M673.9 72.8c0 1.2-0.1 1.8-1.7 2.4 -10.4 4.1-13.9 7-13.9 11.9 0 1 0.3 5.7 5.2 5.7 3 0 6.7-2.5 9.5-4.8 0.1-0.1 0.3-0.2 0.5-0.3 0.2 0 0.3 0 0.9 1.3 0.8 1.6 2.1 3.6 4.7 3.6 3 0 7.1-3.2 7.1-4.8 0-0.3-0.3-0.6-0.6-0.6 -0.3 0-0.4 0.1-1.1 0.7 -0.6 0.4-1.2 0.7-2 0.7 -1.9 0-2.1-1.7-2.1-3.8V66.1c0-2.8-1.5-4.9-7.9-4.9 -10.2 0-14.5 6.9-14.5 9.2 0 0.8 0.6 1.4 1.4 1.4 0 0 0 0 0.1 0 0.1 0 4-0.3 5-3.3 0.5-1.6 2-5.7 5.9-5.7 3.2 0 3.4 3.2 3.4 5.6L673.9 72.8 673.9 72.8zM673.9 81.4c0 4.7-2.6 7.1-5.7 7.1 -1.5 0-3-1.2-3-4.4 0-1.3 0-3.9 4.2-5.9 1.1-0.7 2.4-1.2 3.7-1.4 0.3-0.1 0.7 0.2 0.7 0.5 0 0.1 0 0.1 0 0.2L673.9 81.4 673.9 81.4z"/>
            <path class="st34" d="M691.9 85.6c0 3.7 0 4.4-2.9 4.8 -1.5 0.2-2 0.5-2 1.1 0 0.9 0.7 0.9 1.5 0.9 1.4 0 2.2-0.3 6.7-0.3 3.9 0 5.2 0.3 7.1 0.3 0.5 0 1.1 0 1.1-0.8 0-0.6-0.3-0.9-2-1.1 -2.9-0.4-2.9-1.1-2.9-4.9V54.8c0-0.7 0.3-4.9 0.3-5.8 0-0.7 0-1.4-0.7-1.4 -0.3 0-0.5 0.1-2.1 0.9 -1.9 0.8-3.8 1.5-5.8 2 -2 0.5-2.2 0.5-2.2 1.1s0.3 0.7 1.5 0.9c2.4 0.2 2.4 2.5 2.4 4.5L691.9 85.6 691.9 85.6z"/>
            <path class="st34" d="M80.2 70.6v20.9c0 5.9-12.2 17.3-25.9 17.3S28.1 93.7 28.1 88.2V38.6c0 0 5.6-0.9 6.9 2.7s1.2 12.8 1.2 14 0.9 0.9 1.6-0.6c0.6-1.5 7.5-27.6 7.8-28.2s4.2-1.1 5.6 1.7 1.4 5.6 0.2 9.5 -2.2 6.3-2.5 7.7 0.8 1.1 2.2-0.3S67 29 67 29c1.4 1.8 2.1 4 1.9 6.2 -0.3 3.9-8.3 14.2-8.9 15.7s-5 7.8-5 7.8 2.8-0.5 5-0.6 3-0.5 6.9 2.2 11.1 6.9 11.1 6.9 -4.5 5.1-9.7 4.5S57.7 65 57.3 65.8c-0.2 0.3-12.2 10.4-12.2 10.4v18.4h25.1V80.4C70.2 71.8 80.2 70.6 80.2 70.6z"/>
        </g> 
        </svg>